<svg version="1.1" xmlns="http://www.w3.org/2000/svg" xmlns:xlink="http://www.w3.org/1999/xlink" width="38.8833" height="53.75279" viewBox="0,0,38.8833,53.75279"><g transform="translate(28.17057,-331.17349)"><g fill="#ff0000" stroke="none" stroke-width="0.5" stroke-miterlimit="10"><path d="M-24.28686,382.09802c-1.76766,0 -1.76766,-1.76766 -1.76766,-1.76766c0,-7.07063 0,-14.84831 0,-21.91894c0,-8.61573 0.03704,-16.60997 -2.06841,-25.02553c0,0 -0.42872,-1.71488 1.28616,-2.1436c1.71488,-0.42872 2.1436,1.28616 2.1436,1.28616c3.79139,15.17648 2.17396,31.53163 2.17396,47.09485v0.70706c0,0 0,1.76766 -1.76766,1.76766z"/><path d="M-11.55974,383.51215c-1.76766,0 -1.76766,-1.76766 -1.76766,-1.76766v-2.12119c0,-0.3394 -0.00671,-4.34238 0.02282,-4.52553c0.11867,-0.7358 0.59893,-1.38376 0.70706,-2.12119c0.67394,-4.59602 -0.56773,-9.48485 0.00006,-14.10645c0.85516,-6.96062 0.68417,-13.91593 0.68417,-20.96353c0,0 0,-1.76766 1.76766,-1.76766c1.76766,0 1.76766,1.76766 1.76766,1.76766c0,7.16426 0.19825,14.24586 -0.70249,21.32292c-0.59738,4.69361 0.62663,9.62457 -0.0274,14.31336c-0.10296,0.73816 -0.58014,1.38676 -0.70706,2.12119c-0.22475,1.30049 0.02282,2.63946 0.02282,3.95923v2.12119c0,0 0,1.76766 -1.76766,1.76766z"/><path d="M8.94508,384.92627c-1.76766,0 -1.76766,-1.76766 -1.76766,-1.76766v-0.70706c0.00445,-2.62411 -0.50091,-5.04554 -0.70365,-7.66785c-0.21775,-2.81646 0.1798,-5.67807 -0.00071,-8.49683c-0.18462,-2.8829 -0.70796,-5.68315 -0.70977,-8.5825c-0.00191,-3.06394 0,-6.12788 0,-9.19181c0,-2.9748 0.36206,-5.80809 -0.61635,-8.63283c0,0 -0.55898,-1.67695 1.11796,-2.23593c1.67695,-0.55898 2.23593,1.11796 2.23593,1.11796c2.12079,6.5599 0.31785,14.12746 0.79507,20.96605c0.14858,2.12906 0.57206,4.23359 0.70706,6.36356c0.17814,2.81047 -0.22111,5.66626 -0.00071,8.47267c0.21121,2.68949 0.70635,5.18859 0.71048,7.88752v0.70706c0,0 0,1.76766 -1.76766,1.76766z"/></g></g></svg>